<?xml version="1.0" encoding="UTF-8"?>
<!DOCTYPE svg PUBLIC "-//W3C//DTD SVG 1.1//EN" "http://www.w3.org/Graphics/SVG/1.1/DTD/svg11.dtd">
<svg xmlns="http://www.w3.org/2000/svg" version="1.1" width="80px" height="80px" style="shape-rendering:geometricPrecision; text-rendering:geometricPrecision; image-rendering:optimizeQuality; fill-rule:evenodd; clip-rule:evenodd" xmlns:xlink="http://www.w3.org/1999/xlink">
<g><path fill="#29324f" stroke="#29324f" stroke-width="0.5" d="M 22.14,39.91 C 23.59,39.95 25.04,40.02 26.49,40.11 C 29.98,41.05 33.36,42.28 36.63,43.82 C 39.91,43.88 43.2,44.01 46.48,44.21 C 47.55,44.54 48.65,44.77 49.76,44.91 C 49.78,45.1 49.81,45.29 49.83,45.49 C 49.2,45.85 48.59,46.25 48.01,46.68 C 47.45,47.38 46.85,48.04 46.22,48.65 C 45.05,48.91 43.88,49.11 42.7,49.25 C 42.74,50.12 42.52,50.97 42.06,51.77 C 41.13,52.15 40.17,52.37 39.16,52.41 C 39.16,52.52 39.17,52.62 39.18,52.72 C 38.87,52.72 38.55,52.72 38.24,52.72 C 37.76,51.69 37.4,50.62 37.15,49.52 C 36.64,48.82 36,48.25 35.24,47.8 C 33.69,46.94 32.3,45.86 31.08,44.58 C 28.84,42.03 26.02,40.71 22.64,40.63 C 22.3,40.5 22.13,40.26 22.14,39.91 Z"/></g>
<g><path fill="#bfbfc2" d="M 31.08,44.58 C 32.3,45.86 33.69,46.94 35.24,47.8 C 32.34,48.03 29.44,48.06 26.53,47.88 C 25.28,47.61 24.17,47.04 23.21,46.17 C 22.62,45.95 22.02,45.82 21.39,45.8 C 20.38,45.58 19.94,45.97 20.06,46.94 C 18.35,45.59 17.04,43.92 16.12,41.95 C 16.54,41.71 16.98,41.6 17.45,41.61 C 21.03,43.14 24.71,44.34 28.5,45.22 C 29.44,45.32 30.29,45.11 31.08,44.58 Z"/></g>
<g><path fill="#555e79" stroke="#555e79" stroke-width="0.5" d="M 43.09,35.2 C 43.95,35.27 44.76,35.51 45.54,35.92 C 46,35.93 46.25,35.72 46.29,35.26 C 48.06,36.73 50.08,37.53 52.36,37.67 C 52.85,37.61 53.33,37.5 53.8,37.33 C 53.85,37.86 53.84,38.39 53.76,38.92 C 53.29,39.09 52.82,39.28 52.36,39.47 C 53.06,39.61 53.76,39.76 54.46,39.93 C 54.89,40.55 54.76,41.07 54.06,41.47 C 51.36,42.38 48.71,42.28 46.11,41.18 C 44.81,39.77 43.33,38.62 41.64,37.73 C 42.52,37.11 43.01,36.27 43.09,35.2 Z"/></g>
<g><path fill="#e2e1e1" d="M 70.93,18.05 C 71.39,17.94 71.72,18.1 71.91,18.54 C 71.99,32.86 72.03,47.18 72.03,61.51 C 72.22,62.71 71.81,63.59 70.8,64.15 C 70.65,64.08 70.5,64.02 70.35,63.95 C 70.88,62.87 71.09,61.72 71,60.51 C 71.02,46.36 71,32.21 70.93,18.05 Z M 9.19,62.74 C 9.87,63.37 10.16,64.17 10.07,65.13 C 9.64,65.11 9.35,64.88 9.22,64.45 C 9.07,63.88 9.06,63.31 9.19,62.74 Z"/></g>
<g><path fill="#d1d2d2" fill-opacity="0.996" d="M 16.09,37.94 C 16.36,38.03 16.63,38.12 16.9,38.2 C 18.28,39.79 20.03,40.36 22.14,39.91 C 22.13,40.26 22.3,40.5 22.64,40.63 C 26.02,40.71 28.84,42.03 31.08,44.58 C 30.29,45.11 29.44,45.32 28.5,45.22 C 24.71,44.34 21.03,43.14 17.45,41.61 C 16.98,41.6 16.54,41.71 16.12,41.95 C 15.33,40.62 15.31,39.29 16.09,37.94 Z"/></g>
<g><path fill="#d5d5d6" d="M 30.74,35.87 C 32.18,35.94 33.61,36.14 35.01,36.47 C 35.82,36.94 36.33,37.6 36.54,38.48 C 36.24,39.46 35.57,39.94 34.52,39.9 C 32.39,39.37 31.13,38.03 30.74,35.87 Z"/></g>
<g><path fill="#9aa4b4" d="M 60.36,35.29 C 59.82,35.14 59.28,35.13 58.74,35.26 C 58.11,35.94 57.54,36.68 57.04,37.48 C 55.96,38 54.87,38.48 53.76,38.92 C 53.84,38.39 53.85,37.86 53.8,37.33 C 55.01,37.03 55.98,36.39 56.72,35.43 C 56.22,34.81 55.75,34.17 55.32,33.49 C 56.01,32.96 56.72,33 57.44,33.6 C 59.33,32.5 60.31,33.06 60.36,35.29 Z"/></g>
<g><path fill="#efeeee" fill-opacity="0.404" stroke="#efeeee" stroke-width="0.5" stroke-opacity="0.404" d="M 8.21,51.01 C 8.36,50.98 8.5,50.96 8.64,50.93 C 8.92,54.3 9.08,57.68 9.11,61.08 C 8.64,61.09 8.3,60.88 8.09,60.45 C 7.86,57.3 7.9,54.15 8.21,51.01 Z"/></g>
<g><path fill="#8c9caf" d="M 64.02,34.03 C 63.36,33.95 62.95,34.23 62.78,34.88 C 62.04,35.27 61.46,35.83 61.01,36.55 C 60.63,36.83 60.21,37.01 59.74,37.09 C 59.85,36.46 60.06,35.86 60.36,35.29 C 60.96,34.42 61.7,33.71 62.6,33.16 C 63.3,33.07 63.78,33.36 64.02,34.03 Z M 64.02,34.03 C 64.36,34.04 64.62,34.19 64.78,34.49 C 64.72,34.76 64.54,34.87 64.25,34.81 C 64.18,34.55 64.1,34.29 64.02,34.03 Z"/></g>
<g><path fill="#efefef" fill-opacity="0.278" stroke="#efefef" stroke-width="0.5" stroke-opacity="0.278" d="M 9.12,21 C 9.05,23.36 8.94,25.72 8.79,28.07 C 8.63,28.08 8.46,28.09 8.29,28.09 C 7.95,25.92 7.86,23.73 8.05,21.53 C 8.28,21.09 8.63,20.92 9.12,21 Z"/></g>
<g><path fill="#f0f0ef" d="M 8.18,34.99 C 8.37,34.98 8.55,34.98 8.74,34.98 C 9.11,37.29 9.11,39.59 8.71,41.89 C 8.55,41.94 8.38,41.99 8.21,42.04 C 7.92,39.69 7.91,37.34 8.18,34.99 Z"/></g>
<g><path fill="#d0d0d3" d="M 22.2,37.34 C 20.97,37.34 20.3,36.76 20.21,35.6 C 20.78,34.6 21.57,34.36 22.57,34.87 C 22.81,35.74 22.68,36.56 22.2,37.34 Z"/></g>
<g><path fill="#9ca6b8" d="M 18.27,33.89 C 17.59,35.26 17.13,36.7 16.9,38.2 C 16.63,38.12 16.36,38.03 16.09,37.94 C 15.55,35.89 16.27,34.54 18.27,33.89 Z"/></g>
<g><path fill="#f0f0ef" fill-opacity="0.816" d="M 8.29,28.09 C 8.46,28.09 8.63,28.08 8.79,28.07 C 9.11,29.7 9.11,31.33 8.77,32.95 C 8.63,32.95 8.49,32.95 8.36,32.95 C 7.88,31.34 7.86,29.72 8.29,28.09 Z"/></g>
<g><path fill="#f0f0ef" fill-opacity="0.929" d="M 8.19,45.98 C 8.34,45.96 8.5,45.95 8.66,45.93 C 9.12,47.61 9.11,49.27 8.64,50.93 C 8.5,50.96 8.36,50.98 8.21,51.01 C 7.86,49.33 7.85,47.66 8.19,45.98 Z"/></g>
<g><path fill="#7887a3" d="M 37.87,31.06 C 39.02,30.7 39.88,31.05 40.44,32.1 C 38.88,33.44 38.02,33.1 37.87,31.06 Z"/></g>
<g><path fill="#e0dfde" d="M 10.11,65.6 C 11.24,66.5 11.96,67.65 12.28,69.05 C 10.5,68.59 9.78,67.44 10.11,65.6 Z"/></g>
<g><path fill="#efefef" fill-opacity="0.439" stroke="#efefef" stroke-width="0.5" stroke-opacity="0.439" d="M 8.21,42.04 C 8.38,41.99 8.55,41.94 8.71,41.89 C 9.07,43.25 9.05,44.59 8.66,45.93 C 8.5,45.95 8.34,45.96 8.19,45.98 C 7.88,44.66 7.89,43.35 8.21,42.04 Z"/></g>
<g><path fill="#eeeeee" fill-opacity="0.302" stroke="#eeeeee" stroke-width="0.5" stroke-opacity="0.302" d="M 8.36,32.95 C 8.49,32.95 8.63,32.95 8.77,32.95 C 8.88,33.63 8.87,34.3 8.74,34.98 C 8.55,34.98 8.37,34.98 8.18,34.99 C 8.11,34.3 8.17,33.62 8.36,32.95 Z"/></g>
<g><path fill="#a4a6b1" fill-opacity="0.875" d="M 65.76,10.13 C 66.54,10.09 66.92,10.46 66.91,11.25 C 66.36,11.05 65.97,10.68 65.76,10.13 Z M 66.91,11.25 C 67.57,11.24 67.81,11.56 67.61,12.21 C 67.35,11.9 67.12,11.58 66.91,11.25 Z"/></g>
<g><path fill="#bcddea" d="M 37.06,21.86 C 36.64,21.98 36.21,22.11 35.79,22.24 C 35.88,21.78 36.14,21.47 36.56,21.28 C 36.93,21.29 37.1,21.49 37.06,21.86 Z"/></g>
<g><path fill="#dfe2e4" d="M 69.82,16 C 70.53,16.08 70.88,16.47 70.85,17.19 C 70.29,16.99 69.94,16.6 69.82,16 Z"/></g>
<g><path fill="#788094" d="M 58.12,40.76 C 57.88,41.48 57.39,41.9 56.63,42.02 C 57,41.45 57.49,41.03 58.12,40.76 Z"/></g>
<g><path fill="#b2b2b3" d="M 55.23,45.88 C 54.78,46.04 54.33,46.21 53.88,46.37 C 53.88,45.83 54.1,45.4 54.54,45.09 C 55,45.14 55.23,45.4 55.23,45.88 Z"/></g>
<g><path fill="#c4c9d6" d="M 21.1,31.13 C 20.94,31.74 20.54,32.11 19.92,32.22 C 19.93,31.44 20.33,31.08 21.1,31.13 Z"/></g>
<g><path fill="#e1e1e1" fill-opacity="0.271" stroke="#e1e1e1" stroke-width="0.5" stroke-opacity="0.271" d="M 14.28,10.19 C 13.87,10.6 13.44,10.97 12.98,11.32 C 13.06,10.54 13.49,10.16 14.28,10.19 Z"/></g>
<g><path fill="#afafb6" fill-opacity="0.851" d="M 12.98,11.32 C 12.77,11.64 12.52,11.91 12.21,12.13 C 12.08,11.48 12.33,11.21 12.98,11.32 Z"/></g>
<g><path fill="#d7e7f4" d="M 39.18,52.72 C 39.56,53.04 39.93,53.38 40.29,53.74 C 39.52,53.84 39.15,53.5 39.18,52.72 Z"/></g>
<g><path fill="#b3bfcf" d="M 46.99,55.12 C 47.68,55.11 47.85,55.37 47.5,55.92 C 47.14,55.79 46.97,55.53 46.99,55.12 Z"/></g>
<g><path fill="#f1f1f1" fill-opacity="0.071" stroke="#f1f1f1" stroke-width="0.5" stroke-opacity="0.071" d="M 64.02,34.03 C 64.1,34.29 64.18,34.55 64.25,34.81 C 63.76,34.83 63.27,34.85 62.78,34.88 C 62.95,34.23 63.36,33.95 64.02,34.03 Z"/></g>
<g><path fill="#9fa9b8" d="M 44.87,56.99 C 44.84,56.56 45.03,56.28 45.43,56.16 C 45.53,56.25 45.62,56.35 45.71,56.45 C 45.57,56.83 45.29,57.01 44.87,56.99 Z"/></g>
<g><path fill="#252c46" stroke="#252c46" stroke-width="0.5" d="M 65.76,10.13 C 65.97,10.68 66.36,11.05 66.91,11.25 C 67.12,11.58 67.35,11.9 67.61,12.21 C 68.25,12.77 68.87,13.36 69.48,13.96 C 69.83,14.6 69.95,15.28 69.82,16 C 69.94,16.6 70.29,16.99 70.85,17.19 C 70.88,17.48 70.9,17.77 70.93,18.05 C 71,32.21 71.02,46.36 71,60.51 C 71.09,61.72 70.88,62.87 70.35,63.95 C 69.61,65.73 68.67,67.41 67.52,68.98 C 65.69,70.33 63.69,71.35 61.53,72.04 C 47.52,72.13 33.5,72.14 19.49,72.05 C 18.41,71.9 17.36,71.62 16.35,71.2 C 15.07,70.31 13.71,69.6 12.28,69.05 C 11.96,67.65 11.24,66.5 10.11,65.6 C 10.1,65.45 10.08,65.29 10.07,65.13 C 10.16,64.17 9.87,63.37 9.19,62.74 C 9.11,62.19 9.08,61.64 9.11,61.08 C 9.08,57.68 8.92,54.3 8.64,50.93 C 9.11,49.27 9.12,47.61 8.66,45.93 C 9.05,44.59 9.07,43.25 8.71,41.89 C 9.11,39.59 9.11,37.29 8.74,34.98 C 8.87,34.3 8.88,33.63 8.77,32.95 C 9.11,31.33 9.11,29.7 8.79,28.07 C 8.94,25.72 9.05,23.36 9.12,21 C 9.03,20.16 8.99,19.33 9,18.49 C 9.37,17.19 9.76,15.89 10.16,14.59 C 10.78,13.73 11.47,12.91 12.21,12.13 C 12.52,11.91 12.77,11.64 12.98,11.32 C 13.44,10.97 13.87,10.6 14.28,10.19 C 16.08,8.74 18.16,8 20.5,7.98 C 33.84,7.99 47.18,8 60.51,8 C 62.46,8.25 64.2,8.96 65.76,10.13 Z M 15.95,22.98 C 15.84,24.51 15.81,26.04 15.88,27.57 C 16.2,28.94 17.04,29.77 18.42,30.07 C 19.43,30.07 20.44,30.1 21.46,30.18 C 21.93,30.38 22.12,30.73 22.01,31.23 C 21.71,31.2 21.4,31.17 21.1,31.13 C 20.33,31.08 19.93,31.44 19.92,32.22 C 19.51,32.12 19.21,32.25 19.01,32.62 C 18.93,33.05 18.79,33.47 18.61,33.87 C 18.5,33.88 18.39,33.89 18.27,33.89 C 16.27,34.54 15.55,35.89 16.09,37.94 C 15.31,39.29 15.33,40.62 16.12,41.95 C 17.04,43.92 18.35,45.59 20.06,46.94 C 21.78,48.41 23.66,49.64 25.7,50.64 C 27.9,51.51 30.12,52.35 32.33,53.17 C 33.53,53.9 34.14,54.98 34.19,56.39 C 34.34,56.81 34.62,57.07 35.03,57.19 C 33.58,58.18 32.19,59.25 30.86,60.38 C 30.06,61.75 30.22,63 31.34,64.13 C 32.52,65.29 33.87,66.18 35.41,66.78 C 35.8,65.89 36.23,65.03 36.7,64.2 C 38.14,64.09 39.58,64.06 41.02,64.12 C 42.48,64.1 43.93,64 45.38,63.81 C 47.26,62.5 48.43,60.72 48.89,58.47 C 48.99,55.99 48.99,53.51 48.87,51.03 C 49.78,50.18 50.83,49.58 52.02,49.24 C 52.52,49.07 52.88,48.74 53.11,48.26 C 53.62,47.92 53.95,47.44 54.1,46.83 C 54.03,46.68 53.95,46.53 53.88,46.37 C 54.33,46.21 54.78,46.04 55.23,45.88 C 56.82,45.19 57.04,44.17 55.91,42.83 C 55.93,42.36 56.17,42.09 56.63,42.02 C 57.39,41.9 57.88,41.48 58.12,40.76 C 57.66,39.95 57.82,39.37 58.62,39 C 59.09,38.98 59.46,38.78 59.71,38.38 C 59.58,38 59.3,37.84 58.88,37.89 C 58.97,37.4 59.26,37.14 59.74,37.09 C 60.21,37.01 60.63,36.83 61.01,36.55 C 61.46,35.83 62.04,35.27 62.78,34.88 C 63.27,34.85 63.76,34.83 64.25,34.81 C 64.54,34.87 64.72,34.76 64.78,34.49 C 64.62,34.19 64.36,34.04 64.02,34.03 C 63.78,33.36 63.3,33.07 62.6,33.16 C 61.7,33.71 60.96,34.42 60.36,35.29 C 60.31,33.06 59.33,32.5 57.44,33.6 C 56.72,33 56.01,32.96 55.32,33.49 C 55.75,34.17 56.22,34.81 56.72,35.43 C 55.98,36.39 55.01,37.03 53.8,37.33 C 53.33,37.5 52.85,37.61 52.36,37.67 C 50.08,37.53 48.06,36.73 46.29,35.26 C 45.76,34.94 45.29,34.54 44.88,34.08 C 44.84,33.64 44.65,33.27 44.31,32.99 C 43.01,32.76 41.72,32.46 40.44,32.1 C 39.88,31.05 39.02,30.7 37.87,31.06 C 37.62,31.15 37.37,31.24 37.13,31.33 C 36.63,31.23 36.28,30.95 36.08,30.48 C 35.83,29 35.8,27.52 35.99,26.02 C 36.56,25.44 37.18,24.92 37.85,24.45 C 39.93,24.25 42.02,24.04 44.1,23.8 C 44.02,24.51 44.29,24.66 44.9,24.25 C 45.62,23.65 46.38,23.11 47.19,22.64 C 49.4,21.24 49.77,19.48 48.28,17.35 C 47.09,16.18 45.85,15.08 44.55,14.07 C 44.18,14.87 43.74,15.63 43.25,16.34 C 40.71,17.03 38.12,17.24 35.49,16.98 C 35.07,17.07 34.81,17.32 34.72,17.73 C 32.85,18.84 31.6,20.42 30.98,22.49 C 30.69,24.5 30.71,26.51 31.05,28.52 C 31.09,29.3 31.35,30 31.82,30.62 C 29.85,30.57 27.88,30.67 25.92,30.91 C 26.58,30.1 27.2,29.27 27.77,28.41 C 27.98,26.6 28.12,24.79 28.2,22.97 C 28.17,21.51 28.03,20.07 27.76,18.65 C 25.61,14.26 22.21,12.74 17.56,14.09 C 16.92,14.44 16.46,14.95 16.19,15.63 C 15.7,18.05 15.62,20.5 15.95,22.98 Z M 51.87,24.03 C 51.85,25.17 51.91,26.3 52.05,27.44 C 52.17,28.17 52.51,28.77 53.09,29.22 C 56.28,29.82 59.47,30.29 62.69,30.62 C 63.34,30.79 63.96,30.72 64.53,30.41 C 63.99,28.68 63.8,26.9 63.96,25.08 C 64.02,23.55 64.02,22.02 63.98,20.5 C 63.95,19.63 63.73,18.81 63.34,18.03 C 61.4,14.42 58.44,13.02 54.45,13.83 C 53.65,13.97 53.02,14.36 52.55,15 C 52.01,16.08 51.74,17.23 51.74,18.44 C 51.81,20.3 51.85,22.16 51.87,24.03 Z M 42.76,27.23 C 43.28,27.18 43.64,26.92 43.85,26.46 C 43.75,26.37 43.65,26.28 43.55,26.19 C 43.09,26.38 42.83,26.73 42.76,27.23 Z M 45.91,27 C 46.02,27.71 46.33,27.83 46.85,27.37 C 46.85,26.19 46.53,26.07 45.91,27 Z M 39.36,29.64 C 41.04,30.02 41.9,29.33 41.95,27.57 C 41.62,27.32 41.3,27.34 40.98,27.64 C 40.37,28.25 39.83,28.92 39.36,29.64 Z M 44.87,29.98 C 45.29,30.02 45.58,29.85 45.74,29.47 C 45.66,29.37 45.57,29.27 45.48,29.18 C 45.09,29.29 44.88,29.56 44.87,29.98 Z M 66.95,29.99 C 67.55,30.91 67.84,30.79 67.85,29.64 C 67.37,29.16 67.07,29.28 66.95,29.99 Z M 53.96,31.02 C 53.95,31.46 54.16,31.73 54.57,31.84 C 54.87,31.27 54.66,31 53.96,31.02 Z M 65.71,32.75 C 66.79,32.66 66.83,32.46 65.85,32.15 C 65.14,32.27 65.09,32.47 65.71,32.75 Z M 14.97,53 C 14.98,56.17 14.99,59.34 15,62.5 C 15.34,65.04 16.83,66.28 19.46,66.24 C 21.7,66.53 23.83,66.21 25.85,65.25 C 27.19,63.58 27.72,61.66 27.44,59.49 C 27.41,57.82 27.25,56.16 26.95,54.51 C 25.2,51.01 22.37,49.41 18.45,49.7 C 16.35,49.8 15.19,50.9 14.97,53 Z M 52.99,55 C 53,57.5 53.01,60 53.03,62.5 C 53.01,64.28 53.85,65.41 55.55,65.87 C 57.52,66.27 59.51,66.35 61.51,66.12 C 63.64,65.85 64.8,64.65 65.01,62.51 C 65.42,59.87 65.3,57.26 64.67,54.67 C 63.6,52.39 61.87,50.87 59.47,50.13 C 57.83,49.9 56.18,49.89 54.53,50.11 C 54.02,50.16 53.66,50.42 53.46,50.88 C 53.23,52.24 53.07,53.62 52.99,55 Z M 30.96,53.97 C 31.04,54.68 31.35,54.84 31.88,54.47 C 31.71,54.07 31.41,53.9 30.96,53.97 Z"/></g>
<g><path fill="#51759e" d="M 55.35,57.24 C 54.7,58.24 54.76,59.17 55.54,60.03 C 55.91,59.33 56.26,58.61 56.57,57.87 C 56.89,58.58 57.16,59.32 57.38,60.07 C 58.26,59.09 58.18,58.19 57.14,57.36 C 56.55,57.17 55.95,57.13 55.35,57.24 C 54.97,56.46 55.07,55.75 55.62,55.13 C 57.25,55.01 58.89,55.01 60.52,55.15 C 61.64,55.14 62.38,55.66 62.72,56.71 C 62.97,58.23 62.96,59.73 62.68,61.23 C 61.71,61.96 60.65,62.55 59.51,62.97 C 56.65,63.4 54.8,62.24 53.98,59.49 C 53.85,58.85 53.9,58.24 54.13,57.63 C 54.45,57.24 54.86,57.11 55.35,57.24 Z M 60.05,57.95 C 60.48,58.64 60.93,59.3 61.42,59.94 C 61.93,59.28 62.03,58.55 61.71,57.76 C 61.5,57.25 61.12,57.01 60.58,57.02 C 60.15,57.19 59.98,57.49 60.05,57.95 Z"/></g>
<g><path fill="#a1b3ca" d="M 30.96,53.97 C 31.41,53.9 31.71,54.07 31.88,54.47 C 31.35,54.84 31.04,54.68 30.96,53.97 Z"/></g>
<g><path fill="#c9d5de" d="M 65.85,32.15 C 66.83,32.46 66.79,32.66 65.71,32.75 C 65.76,32.55 65.8,32.35 65.85,32.15 Z"/></g>
<g><path fill="#7e8fa7" d="M 65.85,32.15 C 65.8,32.35 65.76,32.55 65.71,32.75 C 65.09,32.47 65.14,32.27 65.85,32.15 Z"/></g>
<g><path fill="#d3d7db" d="M 53.96,31.02 C 54.66,31 54.87,31.27 54.57,31.84 C 54.16,31.73 53.95,31.46 53.96,31.02 Z"/></g>
<g><path fill="#c1c7d0" d="M 66.95,29.99 C 67.07,29.28 67.37,29.16 67.85,29.64 C 67.84,30.79 67.55,30.91 66.95,29.99 Z"/></g>
<g><path fill="#c5cae1" d="M 44.87,29.98 C 44.88,29.56 45.09,29.29 45.48,29.18 C 45.57,29.27 45.66,29.37 45.74,29.47 C 45.58,29.85 45.29,30.02 44.87,29.98 Z"/></g>
<g><path fill="#7992a5" d="M 39.36,29.64 C 39.83,28.92 40.37,28.25 40.98,27.64 C 41.3,27.34 41.62,27.32 41.95,27.57 C 41.9,29.33 41.04,30.02 39.36,29.64 Z"/></g>
<g><path fill="#687e9c" d="M 45.91,27 C 46.53,26.07 46.85,26.19 46.85,27.37 C 46.33,27.83 46.02,27.71 45.91,27 Z"/></g>
<g><path fill="#bcccd0" d="M 42.76,27.23 C 42.83,26.73 43.09,26.38 43.55,26.19 C 43.65,26.28 43.75,26.37 43.85,26.46 C 43.64,26.92 43.28,27.18 42.76,27.23 Z"/></g>
<g><path fill="#d0d6e3" d="M 51.87,24.03 C 52.48,23.99 53.1,23.95 53.71,23.91 C 54.2,25.24 55.12,26 56.47,26.21 C 58.88,26.59 61.06,26.07 63.01,24.67 C 63.33,24.8 63.64,24.94 63.96,25.08 C 63.8,26.9 63.99,28.68 64.53,30.41 C 63.96,30.72 63.34,30.79 62.69,30.62 C 59.47,30.29 56.28,29.82 53.09,29.22 C 52.51,28.77 52.17,28.17 52.05,27.44 C 51.91,26.3 51.85,25.17 51.87,24.03 Z"/></g>
<g><path fill="#d8dfe3" d="M 62.06,21.04 C 62.15,21.84 62.15,22.63 62.04,23.42 C 61.86,23.6 61.69,23.77 61.51,23.95 C 60.53,24.06 59.57,23.99 58.62,23.72 C 58.08,23.5 57.69,23.11 57.47,22.56 C 57.54,22.43 57.61,22.3 57.68,22.17 C 59.23,22.14 60.69,21.76 62.06,21.04 Z"/></g>
<g><path fill="#4c899d" d="M 62.06,21.04 C 60.69,21.76 59.23,22.14 57.68,22.17 C 57.61,22.3 57.54,22.43 57.47,22.56 C 57.69,23.11 58.08,23.5 58.62,23.72 C 59.57,23.99 60.53,24.06 61.51,23.95 C 61.69,23.77 61.86,23.6 62.04,23.42 C 62.15,22.63 62.15,21.84 62.06,21.04 C 62.37,21.12 62.59,21.31 62.72,21.61 C 62.88,22.62 62.97,23.64 63.01,24.67 C 61.06,26.07 58.88,26.59 56.47,26.21 C 55.12,26 54.2,25.24 53.71,23.91 C 53.93,22.81 54.09,21.71 54.21,20.6 C 54.47,19.93 54.94,19.49 55.63,19.27 C 57.2,18.98 58.78,18.92 60.37,19.11 C 61.22,19.51 61.79,20.15 62.06,21.04 Z M 54.92,22 C 55.01,22.62 55.32,22.8 55.85,22.53 C 55.65,22.17 55.34,21.99 54.92,22 Z"/></g>
<g><path fill="#525a70" d="M 55.91,42.83 C 57.04,44.17 56.82,45.19 55.23,45.88 C 55.23,45.4 55,45.14 54.54,45.09 C 54.1,45.4 53.88,45.83 53.88,46.37 C 53.95,46.53 54.03,46.68 54.1,46.83 C 53.61,46.53 53.1,46.27 52.56,46.05 C 51.97,46.39 51.45,46.82 50.99,47.35 C 50.59,47.67 50.15,47.78 49.65,47.69 C 49.15,47.27 48.6,46.93 48.01,46.68 C 48.59,46.25 49.2,45.85 49.83,45.49 C 49.81,45.29 49.78,45.1 49.76,44.91 C 50.54,44.89 51.3,44.81 52.06,44.68 C 53.28,43.91 54.56,43.3 55.91,42.83 Z"/></g>
<g><path fill="#9ca4b2" d="M 54.1,46.83 C 53.95,47.44 53.62,47.92 53.11,48.26 C 52.39,48.19 52.03,48.52 52.02,49.24 C 50.83,49.58 49.78,50.18 48.87,51.03 C 48.2,50.98 47.56,51.08 46.94,51.32 C 46.45,52.16 45.95,52.98 45.44,53.76 C 44.98,53.41 44.54,53.04 44.11,52.66 C 43.65,52.57 43.21,52.63 42.79,52.86 C 41.94,53.11 41.11,53.4 40.29,53.74 C 39.93,53.38 39.56,53.04 39.18,52.72 C 39.17,52.62 39.16,52.52 39.16,52.41 C 40.17,52.37 41.13,52.15 42.06,51.77 C 42.52,50.97 42.74,50.12 42.7,49.25 C 43.88,49.11 45.05,48.91 46.22,48.65 C 46.85,48.04 47.45,47.38 48.01,46.68 C 48.6,46.93 49.15,47.27 49.65,47.69 C 50.15,47.78 50.59,47.67 50.99,47.35 C 51.45,46.82 51.97,46.39 52.56,46.05 C 53.1,46.27 53.61,46.53 54.1,46.83 Z"/></g>
<g><path fill="#8aa3be" d="M 58.88,37.89 C 59.3,37.84 59.58,38 59.71,38.38 C 59.46,38.78 59.09,38.98 58.62,39 C 58.7,38.63 58.79,38.26 58.88,37.89 Z"/></g>
<g><path fill="#bdc2cc" d="M 25.26,31.35 C 25.48,31.2 25.7,31.05 25.92,30.91 C 27.88,30.67 29.85,30.57 31.82,30.62 C 32.72,31.79 33.91,32.28 35.38,32.09 C 35.77,32.18 36.06,32.39 36.25,32.74 C 35.27,33.01 34.3,33.3 33.33,33.61 C 32.07,33.35 30.79,33.15 29.5,33.02 C 27.85,33.14 26.23,33.38 24.63,33.72 C 23.92,33.58 23.43,33.18 23.14,32.53 C 23.69,31.89 24.39,31.5 25.26,31.35 Z"/></g>
<g><path fill="#cacac9" fill-opacity="0.992" d="M 70.35,63.95 C 70.5,64.02 70.65,64.08 70.8,64.15 C 71,64.88 71.02,65.62 70.85,66.36 C 70.13,68.48 68.87,70.2 67.06,71.52 C 65.27,72.49 63.41,73.31 61.49,73.97 C 47.16,74.05 32.83,74.04 18.51,73.92 C 16.01,73.38 13.94,72.14 12.31,70.19 C 12.18,69.81 12.17,69.43 12.28,69.05 C 13.71,69.6 15.07,70.31 16.35,71.2 C 17.36,71.62 18.41,71.9 19.49,72.05 C 33.5,72.14 47.52,72.13 61.53,72.04 C 63.69,71.35 65.69,70.33 67.52,68.98 C 68.67,67.41 69.61,65.73 70.35,63.95 Z"/></g>
<g><path fill="#cdd2dc" stroke="#cdd2dc" stroke-width="0.5" d="M 14.97,53 C 15.19,50.9 16.35,49.8 18.45,49.7 C 22.37,49.41 25.2,51.01 26.95,54.51 C 27.54,57.49 27.58,60.47 27.06,63.46 C 26.43,65.08 25.24,65.96 23.5,66.13 C 21.48,66.39 19.48,66.3 17.5,65.87 C 15.82,65.38 14.99,64.26 15,62.5 C 14.99,59.34 14.98,56.17 14.97,53 Z M 24.02,58.99 C 24.46,60.01 25.08,60.14 25.89,59.37 C 26.12,58.78 26.15,58.17 25.97,57.55 C 25.67,57.18 25.33,57.16 24.96,57.5 C 24.52,57.91 24.21,58.41 24.02,58.99 Z M 17.98,57.99 C 17.9,58.66 18.08,59.23 18.52,59.71 C 19.12,58.92 18.93,58.34 17.98,57.99 Z M 20.96,58.02 C 20.89,58.68 21.08,59.24 21.52,59.7 C 22.12,58.91 21.93,58.35 20.96,58.02 Z"/></g>
<g><path fill="#cad0da" d="M 52.99,55 C 53.07,53.62 53.23,52.24 53.46,50.88 C 53.66,50.42 54.02,50.16 54.53,50.11 C 56.18,49.89 57.83,49.9 59.47,50.13 C 62.98,51.34 64.87,53.79 65.14,57.48 C 65.32,59.16 65.27,60.84 65.01,62.51 C 64.35,65.41 62.5,66.66 59.47,66.27 C 57.61,66.31 55.84,65.98 54.15,65.26 C 53.42,64.49 53.04,63.58 53.03,62.5 C 53.01,60 53,57.5 52.99,55 Z M 55.35,57.24 C 54.86,57.11 54.45,57.24 54.13,57.63 C 53.59,59.66 54.21,61.26 55.98,62.42 C 57.09,62.96 58.27,63.14 59.51,62.97 C 60.65,62.55 61.71,61.96 62.68,61.23 C 62.96,59.73 62.97,58.23 62.72,56.71 C 62.38,55.66 61.64,55.14 60.52,55.15 C 58.89,55.01 57.25,55.01 55.62,55.13 C 55.07,55.75 54.97,56.46 55.35,57.24 Z"/></g>
<g><path fill="#d5dae6" stroke="#d5dae6" stroke-width="0.5" d="M 15.95,22.98 C 16.66,23.03 17.37,23.11 18.08,23.21 C 18.04,23.75 18.19,24.22 18.51,24.63 C 18.66,24 18.98,23.49 19.48,23.1 C 20.43,23 21.38,22.96 22.33,22.97 C 22.44,23 22.55,23.04 22.66,23.08 C 22.75,23.72 23.02,24.27 23.48,24.71 C 23.72,24.14 24.03,23.62 24.4,23.14 C 24.78,23.65 25.16,24.16 25.54,24.66 C 25.86,24.52 26.09,24.29 26.2,23.95 C 26.83,23.55 27.5,23.22 28.2,22.97 C 28.12,24.79 27.98,26.6 27.77,28.41 C 27.2,29.27 26.58,30.1 25.92,30.91 C 25.7,31.05 25.48,31.2 25.26,31.35 C 24.19,30.85 23.11,30.81 22.01,31.23 C 22.12,30.73 21.93,30.38 21.46,30.18 C 20.44,30.1 19.43,30.07 18.42,30.07 C 17.04,29.77 16.2,28.94 15.88,27.57 C 15.81,26.04 15.84,24.51 15.95,22.98 Z"/></g>
<g><path fill="#e2e6e8" stroke="#e2e6e8" stroke-width="0.5" d="M 28.2,22.97 C 27.5,23.22 26.83,23.55 26.2,23.95 C 26.23,23 25.99,22.15 25.47,21.4 C 24.36,21.68 23.42,22.24 22.66,23.08 C 22.55,23.04 22.44,23 22.33,22.97 C 22.21,22.5 21.92,22.18 21.46,22.01 C 20.49,21.81 19.53,21.88 18.59,22.21 C 18.22,22.44 18.05,22.78 18.08,23.21 C 17.37,23.11 16.66,23.03 15.95,22.98 C 15.62,20.5 15.7,18.05 16.19,15.63 C 16.46,14.95 16.92,14.44 17.56,14.09 C 22.21,12.74 25.61,14.26 27.76,18.65 C 28.03,20.07 28.17,21.51 28.2,22.97 Z"/></g>
<g><path fill="#4690b9" stroke="#4690b9" stroke-width="0.5" d="M 34.72,17.73 C 36.94,20.38 39.78,21.64 43.26,21.51 C 43.59,21.59 43.74,21.79 43.7,22.13 C 41.49,22.06 39.27,21.97 37.06,21.86 C 37.1,21.49 36.93,21.29 36.56,21.28 C 36.14,21.47 35.88,21.78 35.79,22.24 C 36.07,23.49 36.13,24.75 35.99,26.02 C 35.8,27.52 35.83,29 36.08,30.48 C 36.28,30.95 36.63,31.23 37.13,31.33 C 37.01,31.92 36.72,32.39 36.25,32.74 C 36.06,32.39 35.77,32.18 35.38,32.09 C 33.91,32.28 32.72,31.79 31.82,30.62 C 31.35,30 31.09,29.3 31.05,28.52 C 30.71,26.51 30.69,24.5 30.98,22.49 C 31.6,20.42 32.85,18.84 34.72,17.73 Z"/></g>
<g><path fill="#243561" d="M 21.1,31.13 C 21.4,31.17 21.71,31.2 22.01,31.23 C 23.11,30.81 24.19,30.85 25.26,31.35 C 24.39,31.5 23.69,31.89 23.14,32.53 C 23.43,33.18 23.92,33.58 24.63,33.72 C 26.23,33.38 27.85,33.14 29.5,33.02 C 30.79,33.15 32.07,33.35 33.33,33.61 C 34.3,33.3 35.27,33.01 36.25,32.74 C 36.72,32.39 37.01,31.92 37.13,31.33 C 37.37,31.24 37.62,31.15 37.87,31.06 C 38.02,33.1 38.88,33.44 40.44,32.1 C 41.72,32.46 43.01,32.76 44.31,32.99 C 44.65,33.27 44.84,33.64 44.88,34.08 C 43.74,33.66 43.14,34.03 43.09,35.2 C 43.01,36.27 42.52,37.11 41.64,37.73 C 40.21,37.27 38.8,36.67 37.4,35.95 C 36.57,35.98 35.78,36.15 35.01,36.47 C 33.61,36.14 32.18,35.94 30.74,35.87 C 27.75,35.49 24.9,35.99 22.2,37.34 C 22.68,36.56 22.81,35.74 22.57,34.87 C 21.57,34.36 20.78,34.6 20.21,35.6 C 20.3,36.76 20.97,37.34 22.2,37.34 C 22.02,37.83 21.74,38.27 21.37,38.66 C 21.62,39.08 21.87,39.49 22.14,39.91 C 20.03,40.36 18.28,39.79 16.9,38.2 C 17.13,36.7 17.59,35.26 18.27,33.89 C 18.39,33.89 18.5,33.88 18.61,33.87 C 18.79,33.47 18.93,33.05 19.01,32.62 C 19.21,32.25 19.51,32.12 19.92,32.22 C 20.54,32.11 20.94,31.74 21.1,31.13 Z"/></g>
<g><path fill="#0f1a39" d="M 60.36,35.29 C 60.06,35.86 59.85,36.46 59.74,37.09 C 59.26,37.14 58.97,37.4 58.88,37.89 C 58.79,38.26 58.7,38.63 58.62,39 C 57.82,39.37 57.66,39.95 58.12,40.76 C 57.49,41.03 57,41.45 56.63,42.02 C 56.17,42.09 55.93,42.36 55.91,42.83 C 54.56,43.3 53.28,43.91 52.06,44.68 C 51.3,44.81 50.54,44.89 49.76,44.91 C 48.65,44.77 47.55,44.54 46.48,44.21 C 43.2,44.01 39.91,43.88 36.63,43.82 C 33.36,42.28 29.98,41.05 26.49,40.11 C 25.04,40.02 23.59,39.95 22.14,39.91 C 21.87,39.49 21.62,39.08 21.37,38.66 C 21.74,38.27 22.02,37.83 22.2,37.34 C 24.9,35.99 27.75,35.49 30.74,35.87 C 31.13,38.03 32.39,39.37 34.52,39.9 C 35.57,39.94 36.24,39.46 36.54,38.48 C 36.33,37.6 35.82,36.94 35.01,36.47 C 35.78,36.15 36.57,35.98 37.4,35.95 C 38.8,36.67 40.21,37.27 41.64,37.73 C 43.33,38.62 44.81,39.77 46.11,41.18 C 48.71,42.28 51.36,42.38 54.06,41.47 C 54.76,41.07 54.89,40.55 54.46,39.93 C 53.76,39.76 53.06,39.61 52.36,39.47 C 52.82,39.28 53.29,39.09 53.76,38.92 C 54.87,38.48 55.96,38 57.04,37.48 C 57.54,36.68 58.11,35.94 58.74,35.26 C 59.28,35.13 59.82,35.14 60.36,35.29 Z"/></g>
<g><path fill="#8891ab" d="M 44.88,34.08 C 45.29,34.54 45.76,34.94 46.29,35.26 C 46.25,35.72 46,35.93 45.54,35.92 C 44.76,35.51 43.95,35.27 43.09,35.2 C 43.14,34.03 43.74,33.66 44.88,34.08 Z"/></g>
<g><path fill="#dfe4e6" d="M 63.96,25.08 C 63.64,24.94 63.33,24.8 63.01,24.67 C 62.97,23.64 62.88,22.62 62.72,21.61 C 62.59,21.31 62.37,21.12 62.06,21.04 C 61.79,20.15 61.22,19.51 60.37,19.11 C 58.78,18.92 57.2,18.98 55.63,19.27 C 54.94,19.49 54.47,19.93 54.21,20.6 C 54.09,21.71 53.93,22.81 53.71,23.91 C 53.1,23.95 52.48,23.99 51.87,24.03 C 51.85,22.16 51.81,20.3 51.74,18.44 C 51.74,17.23 52.01,16.08 52.55,15 C 53.02,14.36 53.65,13.97 54.45,13.83 C 58.44,13.02 61.4,14.42 63.34,18.03 C 63.73,18.81 63.95,19.63 63.98,20.5 C 64.02,22.02 64.02,23.55 63.96,25.08 Z M 54.92,22 C 55.34,21.99 55.65,22.17 55.85,22.53 C 55.32,22.8 55.01,22.62 54.92,22 Z"/></g>
<g><path fill="#31c4b7" stroke="#31c4b7" stroke-width="0.5" d="M 44.1,23.8 C 43.99,23.24 43.86,22.68 43.7,22.13 C 43.74,21.79 43.59,21.59 43.26,21.51 C 39.78,21.64 36.94,20.38 34.72,17.73 C 34.81,17.32 35.07,17.07 35.49,16.98 C 38.12,17.24 40.71,17.03 43.25,16.34 C 43.74,15.63 44.18,14.87 44.55,14.07 C 45.85,15.08 47.09,16.18 48.28,17.35 C 49.77,19.48 49.4,21.24 47.19,22.64 C 46.38,23.11 45.62,23.65 44.9,24.25 C 44.29,24.66 44.02,24.51 44.1,23.8 Z"/></g>
<g><path fill="#adb1b9" d="M 35.24,47.8 C 36,48.25 36.64,48.82 37.15,49.52 C 37.4,50.62 37.76,51.69 38.24,52.72 C 37.35,52.81 36.46,52.93 35.57,53.09 C 35.39,53.25 35.21,53.41 35.03,53.58 C 34.9,54.78 34.9,55.98 35.03,57.19 C 34.62,57.07 34.34,56.81 34.19,56.39 C 34.14,54.98 33.53,53.9 32.33,53.17 C 30.12,52.35 27.9,51.51 25.7,50.64 C 23.66,49.64 21.78,48.41 20.06,46.94 C 19.94,45.97 20.38,45.58 21.39,45.8 C 22.02,45.82 22.62,45.95 23.21,46.17 C 24.17,47.04 25.28,47.61 26.53,47.88 C 29.44,48.06 32.34,48.03 35.24,47.8 Z"/></g>
<g><path fill="#4068ae" d="M 48.87,51.03 C 48.99,53.51 48.99,55.99 48.89,58.47 C 48.43,60.72 47.26,62.5 45.38,63.81 C 43.93,64 42.48,64.1 41.02,64.12 C 41.05,62.78 41.07,61.45 41.09,60.11 C 42.14,59.68 43.07,59.09 43.9,58.33 C 44.26,56.35 43.9,54.52 42.79,52.86 C 43.21,52.63 43.65,52.57 44.11,52.66 C 44.54,53.04 44.98,53.41 45.44,53.76 C 45.95,52.98 46.45,52.16 46.94,51.32 C 47.56,51.08 48.2,50.98 48.87,51.03 Z M 46.99,55.12 C 47.03,55.82 47.3,55.98 47.78,55.58 C 47.67,55.18 47.41,55.03 46.99,55.12 Z M 44.87,56.99 C 45.29,57.01 45.57,56.83 45.71,56.45 C 45.62,56.35 45.53,56.25 45.43,56.16 C 45.03,56.28 44.84,56.56 44.87,56.99 Z"/></g>
<g><path fill="#3480bd" stroke="#3480bd" stroke-width="0.5" d="M 35.03,57.19 C 35.39,57.11 35.64,57.25 35.77,57.62 C 35.81,58.48 36.1,59.23 36.63,59.87 C 38.12,59.91 39.6,59.99 41.09,60.11 C 41.07,61.45 41.05,62.78 41.02,64.12 C 39.58,64.06 38.14,64.09 36.7,64.2 C 36.23,65.03 35.8,65.89 35.41,66.78 C 33.87,66.18 32.52,65.29 31.34,64.13 C 30.22,63 30.06,61.75 30.86,60.38 C 32.19,59.25 33.58,58.18 35.03,57.19 Z"/></g>
<g><path fill="#111b35" stroke="#111b35" stroke-width="0.5" d="M 38.24,52.72 C 38.55,52.72 38.87,52.72 39.18,52.72 C 39.15,53.5 39.52,53.84 40.29,53.74 C 41.11,53.4 41.94,53.11 42.79,52.86 C 43.9,54.52 44.26,56.35 43.9,58.33 C 43.07,59.09 42.14,59.68 41.09,60.11 C 39.6,59.99 38.12,59.91 36.63,59.87 C 36.1,59.23 35.81,58.48 35.77,57.62 C 35.64,57.25 35.39,57.11 35.03,57.19 C 34.9,55.98 34.9,54.78 35.03,53.58 C 35.21,53.41 35.39,53.25 35.57,53.09 C 36.46,52.93 37.35,52.81 38.24,52.72 Z"/></g>
<g><path fill="#071c2c" d="M 35.79,22.24 C 36.21,22.11 36.64,21.98 37.06,21.86 C 39.27,21.97 41.49,22.06 43.7,22.13 C 43.86,22.68 43.99,23.24 44.1,23.8 C 42.02,24.04 39.93,24.25 37.85,24.45 C 37.18,24.92 36.56,25.44 35.99,26.02 C 36.13,24.75 36.07,23.49 35.79,22.24 Z"/></g>
<g><path fill="#212d52" d="M 26.2,23.95 C 26.09,24.29 25.86,24.52 25.54,24.66 C 25.16,24.16 24.78,23.65 24.4,23.14 C 24.03,23.62 23.72,24.14 23.48,24.71 C 23.02,24.27 22.75,23.72 22.66,23.08 C 23.42,22.24 24.36,21.68 25.47,21.4 C 25.99,22.15 26.23,23 26.2,23.95 Z"/></g>
<g><path fill="#323d5c" d="M 22.33,22.97 C 21.38,22.96 20.43,23 19.48,23.1 C 18.98,23.49 18.66,24 18.51,24.63 C 18.19,24.22 18.04,23.75 18.08,23.21 C 18.05,22.78 18.22,22.44 18.59,22.21 C 19.53,21.88 20.49,21.81 21.46,22.01 C 21.92,22.18 22.21,22.5 22.33,22.97 Z"/></g>
<g><path fill="#284e66" d="M 60.05,57.95 C 59.98,57.49 60.15,57.19 60.58,57.02 C 61.12,57.01 61.5,57.25 61.71,57.76 C 62.03,58.55 61.93,59.28 61.42,59.94 C 60.93,59.3 60.48,58.64 60.05,57.95 Z"/></g>
<g><path fill="#273a5f" d="M 55.35,57.24 C 57.24,56.92 58.09,57.69 57.87,59.56 C 57.71,59.73 57.54,59.9 57.38,60.07 C 57.16,59.32 56.89,58.58 56.57,57.87 C 56.26,58.61 55.91,59.33 55.54,60.03 C 54.76,59.17 54.7,58.24 55.35,57.24 Z"/></g>
<g><path fill="#192345" d="M 20.96,58.02 C 21.93,58.35 22.12,58.91 21.52,59.7 C 21.08,59.24 20.89,58.68 20.96,58.02 Z"/></g>
<g><path fill="#1c2546" d="M 17.98,57.99 C 18.93,58.34 19.12,58.92 18.52,59.71 C 18.08,59.23 17.9,58.66 17.98,57.99 Z"/></g>
<g><path fill="#181f3b" d="M 24.02,58.99 C 24.21,58.41 24.52,57.91 24.96,57.5 C 25.33,57.16 25.67,57.18 25.97,57.55 C 26.23,58.46 26.02,59.24 25.35,59.88 C 24.66,59.95 24.22,59.66 24.02,58.99 Z"/></g>
</svg>
